<?xml version="1.0" standalone="no"?>
<!DOCTYPE svg PUBLIC "-//W3C//DTD SVG 20010904//EN"
 "http://www.w3.org/TR/2001/REC-SVG-20010904/DTD/svg10.dtd">
<svg version="1.0" xmlns="http://www.w3.org/2000/svg"
 width="319.000000pt" height="319.000000pt" viewBox="0 0 319.000000 319.000000"
 preserveAspectRatio="xMidYMid meet">
<metadata>
Created by potrace 1.14, written by Peter Selinger 2001-2017
</metadata>
<g transform="translate(0.000000,319.000000) scale(0.100000,-0.100000)"
fill="#000000" stroke="none">
<path d="M428 3169 c-117 -17 -232 -95 -296 -201 -63 -106 -62 -72 -62 -1364
0 -805 3 -1189 11 -1230 25 -136 104 -241 227 -301 l76 -38 1095 0 1096 0 68
32 c127 60 214 176 236 314 6 36 11 232 11 452 l0 389 56 61 c63 70 136 210
153 295 15 74 13 215 -4 287 -26 112 -92 231 -169 304 l-36 35 0 275 c0 152
-5 305 -10 341 -15 89 -53 165 -119 231 -67 66 -145 105 -238 119 -83 12
-2012 11 -2095 -1z m2183 -90 c79 -37 133 -90 171 -167 l33 -67 3 -293 3 -293
-58 30 c-32 16 -77 34 -100 41 l-43 13 -2 196 -3 196 -1135 0 -1135 0 0 -1135
0 -1135 1135 0 1135 0 3 312 2 312 38 12 c20 6 63 25 94 40 32 16 60 29 63 29
3 0 5 -183 3 -408 l-3 -407 -33 -67 c-37 -77 -90 -128 -172 -167 l-55 -26
-1075 0 -1075 0 -55 26 c-82 39 -135 90 -172 167 l-33 67 0 1250 0 1250 27 52
c52 97 122 157 221 189 34 10 245 12 1102 11 l1060 -2 56 -26z m-51 -559 l0
-160 -77 0 c-312 -1 -575 -211 -639 -510 l-17 -79 -23 55 c-114 281 -421 448
-715 390 -246 -49 -443 -235 -505 -476 -21 -83 -21 -226 0 -310 44 -177 176
-341 337 -418 118 -57 158 -66 289 -66 97 0 127 5 195 27 225 74 389 261 435
495 l13 63 22 -54 c82 -204 269 -354 488 -394 47 -8 106 -12 140 -9 l57 6 0
-280 0 -280 -1080 0 -1080 0 0 1080 0 1080 1080 0 1080 0 0 -160z m76 -251
c126 -38 223 -107 301 -212 23 -33 43 -63 43 -68 0 -5 -17 -1 -37 10 -144 72
-367 100 -534 66 -158 -32 -312 -106 -447 -215 l-63 -51 7 38 c11 64 51 151
98 218 72 100 177 174 306 216 81 26 237 25 326 -2z m-1242 -137 c122 -45 251
-147 304 -240 l22 -40 -82 33 c-313 127 -660 62 -950 -178 -42 -34 -48 -36
-48 -18 0 30 42 141 75 197 64 111 213 222 346 259 80 22 256 15 333 -13z
m1256 -117 c0 -2 -17 -13 -39 -24 -54 -28 -123 -108 -145 -170 -27 -76 -19
-179 20 -250 58 -108 159 -166 284 -165 81 1 141 26 205 85 44 41 45 41 35 13
-48 -125 -158 -243 -282 -302 -97 -47 -161 -62 -261 -62 -291 0 -529 216 -571
519 -6 42 -5 45 36 83 136 127 329 229 498 263 63 13 220 20 220 10z m-1270
-133 c0 -5 -11 -14 -24 -20 -43 -19 -107 -84 -134 -136 -23 -44 -27 -63 -27
-141 0 -78 4 -97 27 -141 57 -108 157 -169 278 -169 89 0 154 26 213 83 20 20
37 32 37 28 0 -4 -16 -39 -36 -77 -70 -133 -213 -245 -360 -283 -78 -20 -212
-21 -287 -1 -220 57 -392 244 -428 464 l-12 74 63 60 c141 133 337 230 515
256 80 12 175 13 175 3z"/>
<path d="M2235 2543 c-58 -8 -139 -35 -209 -70 -90 -45 -217 -171 -264 -259
-37 -71 -39 -89 -13 -103 23 -13 38 3 72 74 13 28 57 83 99 125 81 82 158 127
265 155 64 16 198 20 257 6 41 -10 62 4 56 36 -6 31 -152 51 -263 36z"/>
<path d="M912 2396 c-104 -26 -220 -93 -296 -170 -117 -118 -177 -246 -119
-254 18 -3 27 7 52 55 68 136 197 246 342 293 72 24 149 28 309 17 29 -2 36 2
38 19 6 39 -22 48 -152 51 -77 1 -140 -2 -174 -11z"/>
</g>
</svg>
