<?xml version="1.0" standalone="no"?>
<!DOCTYPE svg PUBLIC "-//W3C//DTD SVG 20010904//EN"
 "http://www.w3.org/TR/2001/REC-SVG-20010904/DTD/svg10.dtd">
<svg version="1.0" xmlns="http://www.w3.org/2000/svg"
 width="1181.000000pt" height="1212.000000pt" viewBox="0 0 1181.000000 1212.000000"
 preserveAspectRatio="xMidYMid meet">
<metadata>
Created by potrace 1.16, written by Peter Selinger 2001-2019
</metadata>
<g transform="translate(0.000000,1212.000000) scale(0.100000,-0.100000)"
fill="#000000" stroke="none">
<path d="M1939 11630 c-311 -28 -614 -158 -847 -364 -258 -227 -424 -522 -490
-871 -16 -84 -17 -375 -17 -4365 0 -4080 1 -4279 18 -4370 55 -289 191 -558
385 -762 218 -228 469 -370 782 -441 l95 -22 3720 0 3720 0 104 23 c397 89
726 317 945 655 97 149 163 306 209 500 21 92 21 93 24 1584 l4 1492 72 66
c284 261 507 607 627 975 139 422 148 921 24 1347 -113 391 -325 740 -622
1025 l-101 97 -4 1078 c-3 1071 -3 1079 -25 1175 -89 391 -307 712 -630 929
-222 149 -438 224 -713 249 -135 12 -7146 11 -7280 0z m7367 -245 c555 -96
981 -545 1044 -1100 6 -55 10 -451 10 -1009 l0 -918 -27 18 c-68 45 -227 128
-328 171 -105 44 -313 113 -341 113 -12 0 -14 109 -14 670 0 741 2 712 -64
744 -31 15 -350 16 -4003 16 -3129 0 -3973 -3 -3992 -13 -13 -6 -34 -25 -45
-40 l-21 -28 0 -3983 c0 -3840 1 -3983 18 -4010 40 -61 -277 -56 4063 -54
l3976 3 34 37 34 38 0 1090 c0 599 2 1090 4 1090 3 0 56 15 118 34 154 47 332
123 469 201 62 36 114 65 116 65 2 0 2 -624 0 -1387 -3 -1372 -3 -1389 -24
-1473 -65 -263 -179 -466 -359 -642 -179 -174 -381 -281 -634 -335 -81 -17
-243 -18 -3755 -18 -3484 0 -3674 1 -3753 18 -251 54 -464 169 -643 347 -147
147 -253 320 -313 508 -60 191 -56 -135 -56 4498 0 4129 1 4246 19 4341 49
250 155 455 333 639 148 153 322 262 516 325 193 61 -84 57 3888 58 3229 1
3651 -1 3730 -14z m114 -2100 l0 -576 -67 8 c-124 14 -439 8 -562 -11 -659
-101 -1214 -450 -1576 -991 -215 -322 -338 -668 -380 -1073 l-7 -63 -44 133
c-113 338 -309 645 -578 906 -448 434 -1042 662 -1661 639 -194 -8 -327 -27
-505 -73 -793 -206 -1430 -845 -1631 -1635 -65 -258 -88 -590 -58 -841 92
-779 575 -1453 1284 -1794 335 -161 683 -233 1065 -221 339 11 651 89 945 238
670 339 1131 979 1239 1720 9 59 16 126 17 150 0 39 5 29 49 -95 298 -853
1034 -1439 1928 -1536 116 -13 490 -9 525 5 16 7 17 -44 17 -989 l0 -996
-3835 0 -3835 0 0 3835 0 3835 3835 0 3835 0 0 -575z m-109 -796 c664 -68
1239 -436 1580 -1012 32 -55 58 -102 56 -103 -1 -1 -54 23 -117 53 -739 356
-1486 415 -2262 179 -470 -143 -995 -441 -1408 -797 l-83 -72 8 49 c11 80 61
267 95 361 154 424 463 804 852 1045 378 235 841 342 1279 297z m-4361 -484
c531 -90 992 -369 1316 -797 65 -86 184 -275 184 -292 0 -3 -31 9 -68 28 -424
214 -927 336 -1382 336 -782 0 -1623 -340 -2315 -935 -107 -92 -108 -91 -70
80 108 480 383 902 780 1199 281 210 616 345 975 391 135 18 449 13 580 -10z
m4811 -502 c6 -6 -19 -21 -61 -38 -97 -39 -231 -128 -320 -211 -149 -140 -264
-332 -317 -531 -24 -88 -27 -116 -27 -278 0 -155 3 -192 21 -262 89 -335 288
-583 588 -733 158 -79 276 -110 450 -117 386 -16 713 145 962 473 21 27 20 22
-7 -56 -63 -176 -177 -388 -297 -548 -75 -99 -247 -277 -343 -355 -294 -238
-655 -393 -1028 -442 -131 -17 -390 -20 -512 -4 -700 86 -1298 513 -1606 1144
-122 250 -204 573 -204 801 l0 62 108 100 c606 563 1310 914 1992 991 52 6
111 13 130 15 64 8 462 -2 471 -11z m-4553 -460 c45 -3 82 -10 82 -14 0 -5 -5
-9 -12 -9 -28 0 -201 -93 -274 -148 -93 -69 -204 -184 -264 -272 -62 -91 -127
-235 -157 -347 -24 -89 -27 -115 -27 -278 0 -163 3 -189 27 -278 113 -420 440
-726 872 -819 92 -19 333 -17 435 5 235 50 484 200 624 375 27 34 51 61 53 59
6 -7 -48 -141 -102 -252 -380 -781 -1230 -1238 -2102 -1130 -531 66 -1029 348
-1362 772 -241 307 -408 738 -428 1103 l-6 115 94 90 c541 517 1202 872 1844
991 206 38 496 54 703 37z"/>
<path d="M8405 9394 c-384 -40 -712 -148 -1009 -332 -360 -223 -649 -538 -839
-913 -100 -198 -105 -232 -47 -290 23 -23 37 -29 73 -29 66 0 88 24 161 175
134 280 330 527 566 716 271 218 599 362 965 426 157 27 492 23 650 -7 66 -13
146 -25 177 -28 53 -3 60 -1 87 26 52 52 53 112 3 162 -30 29 -95 47 -277 76
-97 15 -428 26 -510 18z"/>
<path d="M3925 8914 c-384 -40 -712 -148 -1009 -332 -360 -223 -649 -538 -839
-913 -100 -198 -105 -232 -47 -290 23 -23 37 -29 73 -29 66 0 88 24 161 175
134 280 330 527 566 716 271 218 599 362 965 426 157 27 492 23 650 -7 66 -13
146 -25 177 -28 53 -3 60 -1 87 26 52 52 53 112 3 162 -30 29 -95 47 -277 76
-97 15 -428 26 -510 18z"/>
</g>
</svg>
